<svg width="181" height="243" viewBox="0 0 181 243" fill="none" xmlns="http://www.w3.org/2000/svg">
<path d="M5.25989 31.0799L7.54988 29.1999V6.36989C6.22988 6.54989 4.94989 6.94989 3.71989 7.56989C2.48989 8.17989 1.40988 8.94989 0.489883 9.86989H0.129883L1.81989 4.63989H20.5099L18.8199 9.86989H18.4599C17.8299 9.03989 16.9799 8.30989 15.9299 7.66989C14.8699 7.02989 13.7699 6.59989 12.6199 6.36989V29.1999L14.9099 31.0799V31.4199H5.25989V31.0799V31.0799Z" fill="#EFA50E"/>
<path d="M23.4399 31.0799L25.7299 29.1499V6.90988L23.4399 4.97989V4.63989H41.97L39.9899 9.93988H39.6599L36.8699 6.37988H30.7999V17.6399L39.36 16.4299L38.2599 19.3699H30.7999V29.6799H36.83L42.0699 26.0599H42.4099L41.7599 31.4099H23.4399V31.0799V31.0799Z" fill="#EFA50E"/>
<path d="M45.52 31.0799L47.81 29.1999V6.90988L45.52 4.97989V4.63989H53.91C55.99 4.63989 57.83 4.95989 59.44 5.60989C61.05 6.25989 62.3 7.17989 63.2 8.35989C64.1 9.54989 64.54 10.9199 64.54 12.4799C64.54 13.7699 64.24 14.9299 63.65 15.9699C63.06 17.0099 62.27 17.8699 61.3 18.5399C60.32 19.2199 59.27 19.6799 58.15 19.9299L62.29 22.5099L65.58 29.1899L67.6 31.0699V31.4099H61.19L55.45 20.4399C54.65 20.5099 53.79 20.5399 52.88 20.5399V29.1799L56.53 31.0599V31.3999H45.52V31.0799ZM53.32 18.8299C54.39 18.8299 55.36 18.5799 56.23 18.0799C57.1 17.5799 57.8 16.8599 58.32 15.9099C58.84 14.9599 59.1 13.8499 59.1 12.5599C59.1 11.2899 58.84 10.1799 58.32 9.24989C57.8 8.31989 57.11 7.59989 56.23 7.11989C55.36 6.62989 54.39 6.38989 53.32 6.38989H52.87V18.8399H53.32V18.8299Z" fill="#EFA50E"/>
<path d="M81.6 31.9301C78.88 31.9301 76.46 31.3101 74.36 30.0701C72.26 28.8301 70.63 27.1501 69.48 25.0301C68.33 22.9101 67.76 20.5701 67.76 18.0001C67.76 15.4401 68.33 13.1001 69.48 10.9801C70.63 8.86009 72.25 7.18008 74.36 5.94008C76.47 4.70008 78.88 4.08008 81.6 4.08008C83.29 4.08008 84.88 4.23008 86.36 4.54008C87.85 4.84008 89.19 5.31008 90.38 5.94008L88.73 11.2401H88.37C87.04 9.85008 85.39 8.75009 83.42 7.95009C81.45 7.15009 79.49 6.74008 77.53 6.74008C77.21 6.74008 76.83 6.75008 76.39 6.77008C75.09 7.95008 74.13 9.29009 73.51 10.7801C72.89 12.2701 72.58 13.8701 72.58 15.5701C72.58 17.8701 73.14 20.1501 74.26 22.4101C75.38 24.6801 76.83 26.5201 78.61 27.9401C80.39 29.3601 82.2 30.0701 84.04 30.0701L90.81 24.8001L91.12 24.9201L89.43 30.3601C87.32 31.4201 84.71 31.9301 81.6 31.9301Z" fill="#EFA50E"/>
<path d="M93.72 33.8L96.03 31.92V4.07999L93.74 2.14999H1.81L0 0H91.92H101.59H149.86L151.67 2.14999H103.4L101.09 4.07999V31.92L103.38 33.8H151.67L153.11 35.58H104.82H95.15H6.64999L5.20999 33.8H93.72Z" fill="#EFA50E"/>
<path d="M119.55 31.38C116.86 31.38 114.48 30.76 112.41 29.52C110.34 28.28 108.73 26.6 107.59 24.48C106.45 22.36 105.88 20.02 105.88 17.46C105.88 14.9 106.45 12.56 107.59 10.44C108.73 8.32003 110.33 6.64004 112.41 5.40004C114.49 4.16004 116.86 3.54004 119.55 3.54004C122.23 3.54004 124.6 4.15004 126.67 5.38004C128.74 6.61004 130.34 8.28004 131.49 10.4C132.63 12.52 133.2 14.87 133.2 17.45C133.2 20.01 132.63 22.35 131.49 24.47C130.35 26.59 128.75 28.27 126.67 29.51C124.59 30.75 122.23 31.38 119.55 31.38ZM124.43 28.66C125.79 27.63 126.79 26.36 127.45 24.86C128.11 23.36 128.44 21.74 128.44 19.98C128.44 17.75 127.92 15.56 126.88 13.4C125.84 11.24 124.42 9.48005 122.61 8.11005C120.81 6.74005 118.82 6.06004 116.66 6.06004C115.98 6.06004 115.29 6.13003 114.57 6.27003C113.13 7.25003 112.07 8.47004 111.36 9.95004C110.66 11.43 110.31 13.05 110.31 14.82C110.31 17.05 110.85 19.25 111.92 21.42C112.99 23.6 114.46 25.37 116.33 26.75C118.2 28.13 120.26 28.82 122.51 28.82C123.18 28.83 123.81 28.77 124.43 28.66Z" fill="#EFA50E"/>
<path d="M143.49 31.9499C140.33 31.9499 137.68 31.4299 135.55 30.3999L136.96 25.8899H137.32L142.37 30.2299C144.21 30.2299 145.65 29.9199 146.69 29.3099C147.73 28.6999 148.25 27.8099 148.25 26.6699C148.25 25.8999 148.03 25.1499 147.58 24.4099C147.13 23.6799 146.39 22.8999 145.36 22.0699C144.33 21.2399 142.92 20.3299 141.16 19.3299C139.3 18.2699 137.94 17.0999 137.08 15.8199C136.22 14.5299 135.8 13.1199 135.8 11.5699C135.8 10.1699 136.15 8.89988 136.84 7.76988C137.54 6.63988 138.53 5.74988 139.81 5.09988C141.1 4.44988 142.58 4.12988 144.27 4.12988C145.69 4.12988 147.04 4.28989 148.31 4.60989C149.58 4.92989 150.7 5.38988 151.68 5.98988L150.04 11.2599H149.68L144.96 5.86989C143.41 5.86989 142.15 6.16988 141.19 6.76988C140.23 7.36988 139.74 8.23988 139.74 9.37988C139.74 10.1799 139.94 10.9099 140.33 11.5699C140.72 12.2299 141.38 12.8999 142.29 13.5799C143.2 14.2699 144.48 15.0899 146.15 16.0599C148.46 17.3899 150.16 18.8199 151.26 20.3599C152.36 21.8899 152.91 23.3999 152.91 24.8799C152.91 26.2699 152.53 27.4999 151.76 28.5599C151 29.6299 149.9 30.4599 148.49 31.0599C147.06 31.6499 145.4 31.9499 143.49 31.9499Z" fill="#EFA50E"/>
<path d="M102.09 111.66H99.72C93.22 111.66 87.95 106.49 87.75 100.05V61.8L95.06 53.97L73.73 42.96L52.4 53.97L59.66 61.74V100.2C59.38 106.57 54.14 111.65 47.69 111.65H45.32L45.29 113.52H102.11L102.09 111.66Z" fill="#EFA50E"/>
<path d="M45.3301 122.08H47.7001C54.2001 122.08 59.4701 127.25 59.6701 133.69V165.49C59.6701 169.63 58.1 173.62 55.2701 176.65L55.2201 176.71C53.4601 178.59 52.8901 181.29 53.7201 183.73L73.69 242.07L93.66 183.73C94.49 181.29 93.92 178.6 92.16 176.71C89.33 173.68 87.7601 169.69 87.7601 165.55V133.54C88.0401 127.17 93.2801 122.09 99.7301 122.09H102.1L102.13 120.22H45.3101L45.3301 122.08Z" fill="#EFA50E"/>
<path d="M43.68 53.94L62.67 42.63H27.4C19.36 42.53 8.68999 40.69 5.23999 39.23V82.93L7.12999 82.9V80.7C7.10999 69.3 14.37 61.9 25.84 61.61H50.86L43.68 53.94Z" fill="#EFA50E"/>
<path d="M130.43 80.4499C130.45 80.9599 130.46 81.4599 130.46 81.9499C130.46 82.3299 130.76 82.6299 131.14 82.6299H141.74C151.35 82.3899 153.13 75.5199 153.11 65.9599C153.11 61.3999 151.34 56.9799 148.08 53.7799C139.98 45.8399 129.25 42.6199 115.35 42.6199H84.8101L103.8 53.6799C103.8 53.6799 110.5 53.6799 112.46 53.6799C123.44 53.6899 129.61 61.1599 130.43 80.4499Z" fill="#EFA50E"/>
<path d="M156.05 166.81C148.45 157.34 151.23 138.15 150.61 137.17C146.14 130.1 138.47 125.14 129.95 122.35C144.36 120.92 148.55 111.86 150.74 101.14C150.74 101.14 145.95 98.6799 139.43 98.6799C132.91 98.6799 128 99.9499 128 99.9499C123.72 111.78 112.88 115.02 103.65 115.12V118.86C108.88 119.76 113.36 123.31 117.27 131.73C120.08 137.76 123.95 154.69 128.85 163.23C138.11 179.36 139.29 184.14 161.35 184.14H180.99V182.12C170.5 181.95 164.75 177.88 156.05 166.81Z" fill="#EFA50E"/>
</svg>
