<svg width="197" height="228" viewBox="0 0 197 228" fill="none" xmlns="http://www.w3.org/2000/svg">
<path d="M120.04 16.18C132.33 16.18 139.24 24.5301 140.14 46.1301C140.16 46.7101 140.17 47.26 140.17 47.8C140.17 48.22 140.51 48.57 140.93 48.57H152.8C163.56 48.3 165.55 40.61 165.53 29.91C165.53 24.8 163.55 19.86 159.9 16.28C150.83 7.39004 138.83 3.79004 123.26 3.79004H89.0698L110.33 16.18C110.34 16.18 117.84 16.18 120.04 16.18Z" fill="#EFA50E"/>
<path d="M168.83 142.81C160.32 132.2 163.43 110.73 162.74 109.63C157.73 101.72 149.15 96.16 139.61 93.04C155.74 91.43 160.44 81.3 162.89 69.3C162.89 69.3 157.53 66.55 150.23 66.55C142.93 66.55 137.44 67.97 137.44 67.97C132.65 81.22 120.52 84.84 110.18 84.95V89.1301C116.04 90.1401 121.05 94.11 125.43 103.53C128.57 110.28 132.9 129.23 138.4 138.8C148.77 156.86 150.09 162.21 174.79 162.21H196.78V159.95C185.01 159.76 178.57 155.21 168.83 142.81Z" fill="#EFA50E"/>
<path d="M105.78 81.0699C98.5099 81.0699 92.5999 75.2899 92.3799 68.0699V25.2499L100.56 16.4899L76.6798 4.15991L76.6498 4.16991L52.7999 16.4899L60.9198 25.1899V68.2499C60.6098 75.3799 54.7299 81.0699 47.5199 81.0699H44.8698L44.8398 83.1599H76.6498H108.46L108.43 81.0699H105.78V81.0699Z" fill="#EFA50E"/>
<path d="M44.8501 90.6499L44.8801 92.7399H47.5301C54.8001 92.7399 60.7101 98.5199 60.9301 105.74V141.34C60.9301 145.98 59.1701 150.45 56.0001 153.84L55.9401 153.9C53.9701 156.01 53.3301 159.03 54.2601 161.75L76.6201 227.06L76.6501 226.99L98.9901 161.75C99.9201 159.02 99.2801 156 97.3101 153.9C94.1401 150.51 92.3801 146.04 92.3801 141.4V105.56C92.6901 98.4299 98.5701 92.7399 105.78 92.7399H108.43L108.46 90.6499H76.6501H44.8501Z" fill="#EFA50E"/>
<path d="M43.03 16.46L64.29 3.8H24.81C15.81 3.69 3.87 1.62 0 0V16.47V48.93L2.11 48.9V46.44C2.09 33.68 10.21 25.4 23.05 25.07H51.05L43.03 16.46Z" fill="#EFA50E"/>
</svg>
